<svg width="64" height="64" viewBox="0 0 64 64" xmlns="http://www.w3.org/2000/svg">
  <rect width="64" height="64" rx="14" fill="#0A0A0A"/>
  <g transform="translate(32 33) scale(0.82) translate(-32 -31)">
    <path fill="#FFFFFF" d="M32 21C29.5 17.5 25.5 16.5 21.5 17.8L12.5 8.5C10.3 13.5 9.5 18.5 9.8 24C7.6 30 7.8 36.5 11.5 42.5C15.5 49.5 23.5 54 32 54C40.5 54 48.5 49.5 52.5 42.5C56.2 36.5 56.4 30 54.2 24C54.5 18.5 53.7 13.5 51.5 8.5L42.5 17.8C38.5 16.5 34.5 17.5 32 21Z"/>
    <path fill="#0A0A0A" d="M16.5 13L21 18.5L14.5 19.5Z"/>
    <path fill="#0A0A0A" d="M47.5 13L49.5 19.5L43 18.5Z"/>
    <ellipse fill="#0A0A0A" cx="24" cy="32.5" rx="3" ry="3.9"/>
    <path fill="#0A0A0A" d="M28.5 38.5H35.5L32 43Z"/>
    <path fill="none" stroke="#0A0A0A" stroke-width="1.6" stroke-linecap="round" d="M32 43V45.5M32 45.5C30 47.6 27.6 47.1 26.6 45M32 45.5C34 47.6 36.4 47.1 37.4 45"/>
    <path fill="none" stroke="#FF4D00" stroke-width="3.4" stroke-linecap="round" d="M37 30.8L42.4 35"/>
  </g>
</svg>
